# xmcd CD database file
# Copyright (C) 1997 Ti Kan
# 
# Track frame offsets:
#     150
#     13000
#     29305
#     41875
#     57037
#     68202
#     83465
#     97460
#     109637
#     121760
#     133800
#     143830
#     157845
#     170800
#     193562
#     206862
#     220672
#     234592
#     249240
#     261760
# 
# Disc length: 3683 seconds
# 
# Revision: 1
# Processed by: cddbd v1.4b41PL1 Copyright (c) Steve Scherf et al.
# Submitted via: DiscPlay 4.0.3
# 
DISCID=1a0e6114
DTITLE=Big Joe Williams - Baby Please Don't Go
DYEAR=1900
DGENRE=
TTITLE0=Roll and Tumble
TTITLE1=Jumpin' In The Moonlight
TTITLE2=Sweet Old Kokomo
TTITLE3=Rambled And Wandered
TTITLE4=No. 13 Highway
TTITLE5=Poor Beggar
TTITLE6=Pea Vine Special
TTITLE7=Dirt Road Blues
TTITLE8=Everybody's Gonna Miss Me When I'm Gone
TTITLE9=Old Folks Tavern
TTITLE10=Take It All
TTITLE11=Shady Grove
TTITLE12=Scardie Mama
TTITLE13=Leeve Camp Blues
TTITLE14=Low Down Dirty Shame
TTITLE15=Somebody's Been Borrowing That Stuff
TTITLE16=Providence Help The Poor
TTITLE17=Wild Cow Blues
TTITLE18=Baby Please Don't Go
TTITLE19=Highway 49
EXTD=
EXTT0=
EXTT1=
EXTT2=
EXTT3=
EXTT4=
EXTT5=
EXTT6=
EXTT7=
EXTT8=
EXTT9=
EXTT10=
EXTT11=
EXTT12=
EXTT13=
EXTT14=
EXTT15=
EXTT16=
EXTT17=
EXTT18=
EXTT19=
PLAYORDER=
